# xmcd CD database file
#
# Track frame offsets:
#	150
#	30313
#	49970
#	79108
#	93723
#	115885
#	141860
#	164963
#	183313
#	210128
#	243013
#	265455
#
# Disc length: 3806 seconds
#
# Revision: 0
# Processed by: cddbd v1.5.1PL0 Copyright (c) Steve Scherf et al.
# Submitted via: CDex 1.51
#
DISCID=a30edc0c
DTITLE=M's featuring MASAHIRO SAYAMA - STANDARD MIND
DYEAR=2005
DGENRE=Jazz
TTITLE0=CHEEK TO CHEEK
TTITLE1=YOU and THE NIGHT and THE MUSIC
TTITLE2=CANTALOUPE ISLAND
TTITLE3=THE BOY NEXT DOOR
TTITLE4=ALL BLUES
TTITLE5=LULLABY OF BIRDLAND
TTITLE6=THE SONG IS ENDED
TTITLE7=SOFTLY AS IN A MORNING SUNRISE
TTITLE8=YESTERDAYS
TTITLE9=SPAIN
TTITLE10=PERI'S SCOPE
TTITLE11=THE GIRL FROM IPANEMA
EXTD=YEAR: 2005
EXTT0=
EXTT1=
EXTT2=
EXTT3=
EXTT4=
EXTT5=
EXTT6=
EXTT7=
EXTT8=
EXTT9=
EXTT10=
EXTT11=
PLAYORDER=
